# xmcd
#
# Track frame offsets:
#	150
#	11943
#	23873
#	38289
#	56802
#	70418
#	83988
#	96033
#	113170
#	126171
#	138298
#	154145
#	163394
#	177752
#	193954
#
# Disc length: 2804 seconds
#
# Revision: 1
# Processed by: cddbd v1.5.2PL0 Copyright (c) Steve Scherf et al.
# Submitted via: audiograbber 1.83.01
#
DISCID=cf0af20f
DTITLE=Various Artist - Line Dance Classics - CD1
DYEAR=2011
DGENRE=Country
TTITLE0=Johnny Cash - Ring Of Fire
TTITLE1=Tammy Wynette - Stand By Your Man
TTITLE2=John Denver - Take Me Home, Country Roads
TTITLE3=Kenny Chesney - She Thinks My Tractor's Sexy
TTITLE4=Merle Haggard - That's The Way Love Goes
TTITLE5=Alabama - High Cotton
TTITLE6=Woolpackers - Line Dance Party
TTITLE7=K.T. Oslin - Come Next Monday
TTITLE8=Lynn Anderson - Rose Garden
TTITLE9=Charlie Rich - The Most Beautiful Girl
TTITLE10=Willie Nelson - Always On My Mind
TTITLE11=Charley Pride - Kiss An Angel Good Mornin'
TTITLE12=Miranda Lambert - Gunpowder and Lead
TTITLE13=Charlie Daniels - The Devil Went Down To Georgia
TTITLE14=Ronnie Milsap - Any Day Now
EXTD=
EXTT0=
EXTT1=
EXTT2=
EXTT3=
EXTT4=
EXTT5=
EXTT6=
EXTT7=
EXTT8=
EXTT9=
EXTT10=
EXTT11=
EXTT12=
EXTT13=
EXTT14=
PLAYORDER=
